<svg width="226" height="87" viewBox="0 0 226 87" fill="none" xmlns="http://www.w3.org/2000/svg">
<path d="M169.745 11.4908C171.166 11.4908 171.835 10.446 171.835 9.23417C171.835 7.85515 171.166 6.60149 169.745 6.60149C168.325 6.60149 167.74 7.85515 167.74 9.23417C167.74 10.446 168.325 11.4908 169.745 11.4908ZM174.467 16.7143C177.309 16.7143 180.443 16.2964 182.992 15.586C182.448 22.6901 176.64 26.7436 169.327 26.7436C160.677 26.7436 155.537 22.1468 155.537 15.0846C155.537 7.93872 161.095 3.34198 169.745 3.34198C177.35 3.34198 182.573 6.43433 182.573 13.622H169.119C168.032 13.622 167.532 13.9563 167.532 14.6249C167.532 15.8368 169.913 16.7143 174.467 16.7143Z" fill="#EE4E34"/>
<path d="M45.9523 6.77006C45.9523 2.08973 49.8386 0.000305176 55.4383 0.000305176C61.9991 0.000305176 70.1896 0.501768 73.8656 0.000305176L73.6149 10.9071C70.0211 8.52518 65.8422 7.52225 63.6274 7.52225C61.623 7.52225 60.5783 7.77298 60.5783 8.60875C60.5783 11.4922 74.3685 8.19087 74.3685 17.7605C74.3685 22.8573 71.1912 26.7436 63.9631 26.7436C58.071 26.7436 51.3012 26.075 45.5762 26.5765L45.8269 12.8294C49.1282 14.7503 53.5996 15.88 56.1069 15.88C58.2799 15.88 59.5336 15.5039 59.5336 14.5009C59.5336 11.7011 45.9523 15.3353 45.9523 6.77006Z" fill="#EE4E34"/>
<path d="M112.02 4.17917H126.437C125.601 11.4072 125.601 18.6784 126.437 25.9078H112.02C112.857 18.6784 112.857 11.4072 112.02 4.17917Z" fill="#EE4E34"/>
<path d="M141.815 5.93428C140.06 5.93428 139.393 7.81476 139.393 10.4892C139.393 14.3742 141.565 17.2576 147.666 17.2576C149.713 17.2576 151.928 16.8397 153.85 16.1293C153.307 22.8155 148.084 26.7422 141.188 26.7422C132.958 26.7422 128.068 22.1469 128.068 15.0846C128.068 7.94013 133.374 3.34338 141.608 3.34338C148.794 3.34338 153.433 5.30745 153.433 10.07C153.433 13.1205 150.883 14.7921 147.624 14.7921C144.699 14.7921 142.567 13.1205 142.567 10.4892C142.567 7.3133 143.612 5.93428 141.815 5.93428Z" fill="#EE4E34"/>
<path d="M100.602 15.3102C99.6882 15.5568 98.975 16.27 98.7285 17.1838L98.2772 18.8609L97.8258 17.1838C97.5793 16.27 96.8661 15.5568 95.9523 15.3102L94.2738 14.8589L95.9523 14.4062C96.8661 14.1611 97.5793 13.4465 97.8258 12.5327L98.2772 10.8556L98.7285 12.5327C98.975 13.4465 99.6882 14.1611 100.602 14.4062L102.281 14.8589L100.602 15.3102ZM100.236 3.34338C96.015 3.34338 93.9674 6.05964 92.5883 8.60874C92.2122 9.27736 91.793 9.69525 91.2929 9.69525C90.7483 9.69525 90.3735 9.19378 90.3735 8.44159C90.3735 7.14614 90.4989 5.22387 90.5825 4.17915H76.2908C77.1252 10.2357 77.3606 16.0457 76.9441 25.5902C76.8271 28.2898 78.6101 30.7163 81.2246 31.4016L90.4153 33.8114C90.1632 30.0923 89.9557 23.2334 89.9557 20.9768C89.9557 20.3917 90.2482 20.0156 90.7483 20.0156C91.2511 20.0156 91.5854 20.3917 91.8779 21.0604C93.0062 23.6095 95.6389 26.7436 100.276 26.7436C106.462 26.7436 110.389 21.8961 110.389 14.5831C110.389 7.6894 106.419 3.34338 100.236 3.34338Z" fill="#EE4E34"/>
<path d="M218.758 34.5497C216.678 33.1372 214.079 32.3948 211.478 32.3948C209.472 32.3948 207.468 32.8405 205.684 33.732C203.902 34.6235 202.267 36.0346 201.228 37.7437C199.89 39.9725 199.369 42.5717 198.997 45.1724C198.255 50.1494 197.811 52.8977 197.365 52.8977C196.918 52.8977 196.473 50.5951 195.731 45.6181C195.358 43.0175 194.838 40.4182 193.501 38.1895C192.462 36.4803 190.826 35.0693 189.045 34.1778C187.262 33.2863 185.256 32.8405 183.25 32.8405C180.651 32.8405 178.124 33.5844 176.044 34.9954C173.023 37.0668 171.361 41.2526 170.495 46.3271C172.857 51.9811 174.292 59.7816 174.292 70.5116C174.292 70.772 174.316 71.1273 174.344 71.5479C174.387 72.2012 174.44 73.0008 174.44 73.8533C174.44 77.7326 173.715 80.4907 172.581 82.4436C174.227 84.5637 176.944 86.1029 179.981 86.1029C181.17 86.1029 182.359 85.8814 183.548 85.3604C186.295 84.2461 187.93 81.7945 188.45 78.5266C188.747 76.6698 188.896 74.5887 188.896 72.5843C188.896 71.9157 188.747 70.3556 188.896 69.166C188.97 68.3497 189.192 67.6811 189.64 67.6811C190.603 67.6811 191.347 77.4123 196.993 77.4123C205.611 77.4123 204.123 67.2353 205.239 67.2353C205.759 67.2353 205.906 68.6464 205.906 69.5379V72.1371C205.906 74.143 205.982 76.2227 206.278 78.0809C206.798 81.3487 208.507 83.8003 211.255 84.9147C212.445 85.4343 213.632 85.5833 214.821 85.5833C218.164 85.5833 221.06 83.8003 222.62 81.3487C224.107 79.0462 224.405 76.1488 224.552 72.7319C224.775 68.3497 225.147 63.076 225.147 57.8009C225.147 47.9207 223.958 38.1157 218.758 34.5497Z" fill="#EE4E34"/>
<path d="M147.908 61.208C146.053 61.208 144.55 57.9039 144.55 53.8282C144.55 49.7524 146.053 46.4483 147.908 46.4483C149.762 46.4483 151.266 49.7524 151.266 53.8282C151.266 57.9039 149.762 61.208 147.908 61.208ZM171.948 70.7261C171.948 39.081 159.913 32.7667 145.278 32.7667C140.089 32.7667 135.071 34.3909 131.119 38.9236C131.381 39.6827 131.555 40.4725 131.599 41.2763C131.643 41.4685 131.676 41.6022 131.676 41.7624C131.676 45.3061 129.254 49.0517 125.469 50.1062C125.264 50.8222 125.069 51.5618 124.89 52.3335C126.051 52.9813 126.94 53.9076 127.526 55.1292C128.06 56.27 128.338 57.5529 128.338 58.8484C128.338 62.0006 126.514 65.1403 123.998 66.3132C123.722 66.44 123.439 66.543 123.151 66.6336C123.13 67.188 123.109 67.741 123.097 68.3135C126.172 69.354 128.042 71.9658 128.042 75.5624C128.042 75.6752 128.019 75.8159 127.99 75.9566L127.967 76.1168C127.834 78.7202 126.877 80.9114 125.222 82.6289C126.627 84.7684 128.928 86.3258 132.725 86.3258C146.838 86.3258 139 69.6855 148.177 69.6855C157.352 69.6855 149.777 86.3258 162.736 86.3258C171.055 86.3258 172.095 78.8971 172.095 74.0692C172.095 72.6581 171.948 71.3947 171.948 70.7261Z" fill="#EE4E34"/>
<path d="M114.217 49.5281C115.108 49.563 119.825 49.7775 120.642 49.8513C121.013 49.9265 121.385 49.9265 121.682 49.9265C126.064 49.9265 129.333 45.9887 129.333 41.977C129.333 41.8293 129.258 41.6803 129.258 41.5312C129.11 38.932 127.624 36.4065 125.397 34.9941C123.612 33.8811 121.533 33.3601 119.453 33.0634C117.596 32.7654 112.477 32.6915 110.619 32.6915C105.122 32.6915 99.847 33.8059 96.6544 36.3313C94.9995 37.6337 93.8141 39.3053 92.9672 41.2652C94.5705 43.7376 95.423 46.6419 95.423 49.7106C95.423 51.215 95.2447 52.5871 94.8784 53.9076C94.4034 55.6794 93.6275 57.3551 92.5772 58.8846C91.3235 60.7038 91.2859 63.2028 92.4769 65.2518C94.3073 68.3971 95.3227 71.4003 95.4968 74.1806L95.4982 75.1167C95.4982 76.7478 95.196 78.3093 94.6625 79.7371C95.3088 80.8083 96.0596 81.7597 96.9497 82.5369C99.2536 84.5428 102.299 85.5095 105.271 85.9539C107.128 86.2519 108.985 86.3996 110.768 86.3996C118.419 86.3996 125.254 83.5775 125.625 76.2965C125.625 76.1489 125.699 75.926 125.699 75.7769C125.699 71.2457 122.654 68.7202 118.27 68.7202C117.675 68.7202 112.983 68.5949 112.314 68.6701C111.794 68.7439 111.273 68.8191 110.754 68.8191C109.492 68.8191 108.377 68.3734 108.377 66.9623C108.377 65.9956 109.12 65.6237 110.087 65.6237C110.382 65.6237 110.679 65.6237 110.977 65.6989C112.314 65.9956 117.675 66.4915 119.088 66.4915C120.127 66.4915 121.092 66.3425 122.059 65.8967C124.288 64.8576 125.997 62.0341 125.997 59.0629C125.997 57.9485 125.774 56.7604 125.254 55.646C124.288 53.6401 122.505 52.5258 119.83 52.2291C119.013 52.1539 114.447 52.0536 113.63 52.0536C112.885 52.0536 112.143 52.1274 111.4 52.2026C111.103 52.2764 110.881 52.2764 110.584 52.2764C109.691 52.2764 108.801 52.0536 108.801 51.2373C108.801 51.0883 108.876 50.8654 108.949 50.6425C109.247 49.751 110.45 49.3777 114.217 49.5281Z" fill="#EE4E34"/>
<path d="M69.3845 57.5432C68.4777 57.5432 67.7422 54.4968 67.7422 50.74C67.7422 46.9818 68.4777 43.9354 69.3845 43.9354C70.2914 43.9354 71.0268 46.9818 71.0268 50.74C71.0268 54.4968 70.2914 57.5432 69.3845 57.5432ZM90.2273 65.8187C88.9388 63.6039 88.9026 60.8166 90.354 58.7063C91.3542 57.2534 92.1064 55.6306 92.5605 53.9382C92.9324 52.601 93.08 51.2637 93.08 49.9265C93.08 46.8801 92.1886 43.9089 90.4808 41.4574C86.9135 36.4065 80.3777 34.104 72.8014 33.4353C71.1661 33.2863 69.5322 33.2125 67.9721 33.2125C62.7708 33.2125 57.7938 34.0287 54.3769 36.1098C51.1828 38.0404 48.8803 41.3083 47.8397 44.8743C46.8744 48.0683 46.8744 51.4866 46.7992 54.8283C46.7518 56.277 46.6906 57.7159 46.6279 59.1534C46.6613 59.1757 46.6933 59.1938 46.7268 59.2175C49.6478 61.1662 51.3054 64.065 51.5143 67.5947C51.733 71.2651 50.3234 75.1403 47.6127 78.4305C47.9442 79.3693 48.3565 80.2734 48.8803 81.1259C50.588 83.8742 54.0049 86.3996 57.9428 86.3996C59.2801 86.3996 60.6173 86.1029 62.0284 85.5095C65.7434 83.8003 68.2688 79.7886 68.4916 75.0345C68.4916 74.664 68.5655 74.3659 68.5655 73.9953C68.5655 72.1371 68.195 70.2803 68.195 68.3497C68.195 67.6059 68.4916 66.6405 69.1603 66.6405C69.3093 66.6405 69.5322 66.7144 69.7551 66.8634C70.6465 67.4568 70.719 68.7202 70.719 70.1313C70.7942 74.0692 71.6119 78.0809 73.8406 81.2749C75.6236 83.8742 78.8928 86.5486 83.0522 86.5486C83.7194 86.5486 84.3894 86.4748 85.1319 86.3257C89.737 85.3604 93.1553 80.8292 93.1553 75.3326V74.4411C92.9644 71.403 91.7428 68.4249 90.2273 65.8187Z" fill="#EE4E34"/>
<path d="M27.153 52.7556C25.1499 52.8754 23.2276 54.3282 23.36 56.5528C23.4923 58.7773 25.4341 60.1508 27.7338 60.0143C27.8815 60.0045 27.9511 59.9265 28.1002 59.9168C29.1324 59.7816 30.0838 59.5017 31.109 59.2175C33.6692 58.4709 35.7182 57.9012 37.5737 57.7911C39.9459 57.6504 41.9879 58.1979 44.7028 60.0463C47.5681 61.9588 49.0028 64.7768 49.1881 67.89C49.6547 75.7505 42.0409 85.3576 28.9889 86.1335C21.0546 86.6057 14.7069 83.7084 10.0977 80.0394C5.17358 76.0903 0.542011 69.5198 0.0391553 61.066C-0.0667091 59.2858 0.0489059 57.493 0.303816 55.5429C1.53937 47.5069 5.85752 41.2972 11.6425 37.2311C15.572 34.4675 21.0226 32.2834 27.1781 31.917C28.9582 31.8112 30.7496 31.9282 32.6231 32.1148C38.0932 32.757 42.9491 35.593 44.654 40.4781C44.9298 41.3543 45.1444 42.4575 45.2098 43.5705C45.3463 45.8674 44.9744 48.3469 44.1024 49.9613C42.3501 53.0411 39.0279 54.728 35.6918 54.9258C33.6887 55.0456 31.7288 54.6417 30.106 53.622C29.2466 52.9283 28.1907 52.6943 27.153 52.7556Z" fill="#EE4E34"/>
</svg>
