<svg width="115" height="20" viewBox="0 0 115 20" fill="none" xmlns="http://www.w3.org/2000/svg">
<path id="Vector" d="M111.134 4.44948C103.941 6.11413 91.8802 9.78986 81.7209 13.7667L90.6143 1.50041C91.4298 0.430208 90.7935 -0.407422 88.9247 0.210185L84.501 1.34504L79.9164 7.7836L64.4239 12.6714L69.2041 6.42776C71.0115 4.03356 70.2544 3.32331 66.2658 4.26034C59.0726 5.92498 47.0167 9.66344 36.9168 13.6383L41.696 7.39566C43.5035 5.00147 42.7473 4.29122 38.7587 5.22825C32.9359 6.5754 20.075 10.2029 9.99813 13.646L18.2379 2.27821C19.0544 1.20801 18.4181 0.371342 16.5484 0.98895L12.1247 2.1238L0.524984 18.4151C-0.525351 19.8009 -0.0145581 20.4581 2.21165 19.6455C16.9566 14.3409 25.2175 11.8415 31.9823 10.1295C33.3096 9.77635 33.6249 10.0726 32.6944 11.3319L28.0915 17.4463C27.275 18.4566 27.9142 19.3531 29.781 18.6757C44.4637 13.3729 52.7246 10.8745 59.4894 9.1626C60.8167 8.80844 61.133 9.1047 60.2015 10.364L55.6005 16.4784C54.7821 17.4887 55.4194 18.3264 57.2881 17.7087L77.6058 11.0289L72.9004 17.6373C71.8491 19.0231 72.3608 19.6793 74.5871 18.8668C81.2906 16.4552 86.6506 14.6246 91.1423 13.1838L103.025 18.3785C103.748 18.695 104.553 18.7693 105.322 18.5898L110.459 17.3903C111.522 17.1423 111.61 15.6523 110.583 15.2798L98.5579 10.9199C100.659 10.3168 102.562 9.80626 104.359 9.35174C105.686 8.99758 114.072 6.6169 114.072 6.6169C115.879 4.2227 115.123 3.51246 111.134 4.44948Z" fill="#141E82"/>
</svg>
